<svg xmlns="http://www.w3.org/2000/svg" width="122" height="140" viewBox="0 0 122 140">
    <g fill="none" fill-rule="nonzero">
        <path fill="#F072AE" d="M71.076 79.124l-.127.082h.21l-.083-.082z"/>
        <path fill="#FFB655" d="M61.848 137.95l13.35-56.667a7.769 7.769 0 0 1-4.167-2.127h-.082a22.694 22.694 0 0 1-12.413 3.673c-4.455 0-8.61-1.277-12.121-3.485l13.69 58.605h1.743z"/>
        <path fill="#F072AE" d="M107.104 33.676c.227-.829.35-1.701.35-2.602 0-5.442-4.411-9.853-9.853-9.853-.516 0-1.023.04-1.518.117C92.257 10.12 81.629 2.051 69.115 2.051c-12.256 0-22.704 7.74-26.722 18.6a11.353 11.353 0 0 0-5.696-1.525c-6.302 0-11.41 5.109-11.41 11.41l.001.054C12.43 31.415 2.257 42.103 2.257 55.17c0 11.18 7.45 20.621 17.656 23.63a21.246 21.246 0 0 0-1.142 6.893c0 11.75 9.525 21.275 21.275 21.275 4.164 0 8.048-1.196 11.327-3.263.333.523.695 1.026 1.084 1.505l-6.042-25.866a22.696 22.696 0 0 0 12.12 3.485c4.58 0 8.842-1.35 12.415-3.673l.05-.032.032.032a7.77 7.77 0 0 0 4.166 2.127l-6.947 29.488c6.496-1.396 11.527-6.74 12.456-13.398a13.664 13.664 0 0 0 6.933 1.877c7.58 0 13.726-6.146 13.726-13.727 0-2.229-.531-4.334-1.474-6.195 11.292-2.244 19.804-12.207 19.804-24.159 0-9.23-5.078-17.274-12.592-21.493z"/>
        <path fill="#F072AE" d="M71.076 79.124l-.127.082h.21l-.083-.082zM79.28 79.124l-.127.082h.21l-.084-.082z"/>
        <g fill="#FF7956">
            <path d="M66.739 82.83c2.94 0 5.748-.557 8.328-1.57a7.772 7.772 0 0 1-4.036-2.104h-.082a22.67 22.67 0 0 1-8.312 3.305 22.91 22.91 0 0 0 4.102.368zM55.381 82.613a22.662 22.662 0 0 1-8.966-3.27l13.69 58.606h1.743l3.244-13.769-9.71-41.567z"/>
        </g>
        <g fill="#FF3F62">
            <path d="M44.9 19.126c2.075 0 4.02.557 5.696 1.525 3.562-9.625 12.175-16.8 22.621-18.307a28.736 28.736 0 0 0-4.101-.293c-11.74 0-21.82 7.102-26.18 17.244a11.459 11.459 0 0 1 1.964-.169zM88.91 97.373a15.96 15.96 0 0 1-.37 1.848 13.68 13.68 0 0 0 3.201-.594 13.645 13.645 0 0 1-2.83-1.254zM54.618 79.344l.763 3.269a22.988 22.988 0 0 0 7.255-.152 22.67 22.67 0 0 1-8.018-3.117zM83.401 81.283a7.769 7.769 0 0 1-4.166-2.127l-.033-.032-.05.032a22.76 22.76 0 0 1-4.084 2.104l.13.023-6.947 29.488a15.996 15.996 0 0 0 9.727-6.467L83.4 81.283zM26.975 85.693c0-2.413.401-4.731 1.141-6.893C17.91 75.791 10.46 66.35 10.46 55.17c0-13.067 10.173-23.755 23.031-24.58l-.001-.054c0-4.854 3.032-9 7.305-10.65a11.357 11.357 0 0 0-4.098-.76c-6.302 0-11.41 5.108-11.41 11.41l.001.053C12.43 31.415 2.257 42.103 2.257 55.17c0 11.181 7.45 20.622 17.656 23.63a21.246 21.246 0 0 0-1.142 6.894c0 11.75 9.525 21.274 21.275 21.274a21.38 21.38 0 0 0 4.102-.395c-9.788-1.911-17.173-10.533-17.173-20.88z"/>
        </g>
        <path fill="#000" d="M76.051 48.959h4.102v4.102h-4.102zM69.215 48.959h4.102v4.102h-4.102zM62.379 48.959h4.102v4.102h-4.102zM82.887 48.959h4.102v4.102h-4.102zM82.9 81.064l-2.674-3.11a5.734 5.734 0 0 1-3.736 1.384 5.7 5.7 0 0 1-4.045-1.669l-1.178-1.17-1.39.908a20.67 20.67 0 0 1-11.341 3.371c-6.636 0-12.927-3.216-16.83-8.603l-3.32 2.406a24.883 24.883 0 0 0 6.215 6.013L58.478 140h4.994l13.326-56.565a9.838 9.838 0 0 0 6.101-2.371zm-21.919 51.62L49.41 83.15a24.834 24.834 0 0 0 8.743 1.728h.025l.142.002H58.536c4.332 0 8.545-1.116 12.277-3.24.608.432 1.26.79 1.942 1.07l-11.774 49.975z"/>
        <path fill="#000" d="M55.633 76.557l.803-4.023a12.457 12.457 0 0 1-3.311-1.164l-1.891 3.64a16.563 16.563 0 0 0 4.4 1.547zM58.911 72.777h-.14l-.041 4.101h.181c1.506 0 3-.2 4.439-.597l-1.09-3.954c-1.084.299-2.211.45-3.349.45zM45.39 69.969a16.789 16.789 0 0 0 3.228 3.355L51.15 70.1a12.688 12.688 0 0 1-2.44-2.537l-3.322 2.407z"/>
        <g fill="#FFF">
            <path d="M98.124 70.434l.8 4.023a19.505 19.505 0 0 0 10.172-5.514l-2.931-2.87a15.418 15.418 0 0 1-8.04 4.361zM107.717 64.222l3.336 2.387a19.779 19.779 0 0 0 2.21-3.996l-3.794-1.557a15.638 15.638 0 0 1-1.752 3.166zM114.73 55.17h-4.101c0 1.21-.142 2.417-.42 3.59l3.99.95c.352-1.484.532-3.011.532-4.54z"/>
        </g>
        <path fill="#000" d="M11.324 55.17H7.223c0 8.781 5.896 16.569 14.339 18.937l5.468 1.534 1.108-3.948-5.468-1.534c-6.68-1.875-11.346-8.039-11.346-14.99z"/>
        <g fill="#FFF">
            <path d="M89.4 29.836l3.882-1.324-1.9-5.571a23.403 23.403 0 0 0-8.28-11.32l-2.437 3.3a19.317 19.317 0 0 1 6.835 9.343l1.9 5.572zM69.115 7.017v4.101c1.239 0 2.48.119 3.69.352l.777-4.027a23.627 23.627 0 0 0-4.467-.426zM76.48 8.196l-1.283 3.896c1.172.386 2.313.887 3.391 1.49l2-3.582a23.573 23.573 0 0 0-4.108-1.804zM60.539 111.045l4.04.709-.709 4.04-4.04-.709zM61.72 104.31l4.04.71-.708 4.04-4.04-.709zM64.656 87.563l4.04.708-2.465 14.055-4.04-.709z"/>
        </g>
        <path fill="#000" d="M32.764 44.27c0 5.088 1.898 9.951 5.345 13.692l3.016-2.78a16.062 16.062 0 0 1-4.26-10.913c0-8.883 7.228-16.111 16.112-16.111 3.88 0 7.628 1.399 10.555 3.938L66.22 29a20.205 20.205 0 0 0-13.243-4.943c-11.146 0-20.213 9.068-20.213 20.213z"/>
        <path fill="#000" d="M121.747 55.17c0-9.135-4.695-17.626-12.349-22.509.07-.526.107-1.056.107-1.587 0-6.564-5.34-11.903-11.904-11.903h-.135A30.535 30.535 0 0 0 69.116 0C57.136 0 46.23 7.105 41.312 17.893a13.463 13.463 0 0 0-4.616-.817c-6.806 0-12.45 5.078-13.339 11.644C10.238 30.458.206 41.744.206 55.17c0 5.876 1.873 11.45 5.418 16.12a26.937 26.937 0 0 0 11.77 8.821 23.36 23.36 0 0 0-.673 5.582c0 12.862 10.464 23.325 23.325 23.325 2.605 0 5.163-.426 7.604-1.268l-1.337-3.878a19.187 19.187 0 0 1-6.267 1.045c-10.6 0-19.224-8.624-19.224-19.224 0-2.135.347-4.23 1.031-6.23l.694-2.025-2.054-.605c-9.53-2.81-16.186-11.718-16.186-21.664 0-11.875 9.274-21.773 21.112-22.533l1.934-.124-.014-1.938-.002-.063c.014-5.15 4.207-9.334 9.36-9.334 1.639 0 3.254.432 4.67 1.25l2.105 1.215.844-2.28c3.82-10.324 13.787-17.26 24.8-17.26A26.432 26.432 0 0 1 94.141 22l.555 1.628 1.7-.263a7.89 7.89 0 0 1 1.204-.093c4.302 0 7.802 3.5 7.802 7.802a7.82 7.82 0 0 1-.277 2.062l-.422 1.544 1.396.784a22.628 22.628 0 0 1 11.546 19.705c0 10.743-7.635 20.057-18.154 22.147l-2.652.527 1.222 2.411a11.548 11.548 0 0 1 1.254 5.27c0 6.437-5.238 11.675-11.676 11.675-2.077 0-4.116-.552-5.896-1.595l-2.644-1.55-.424 3.036c-.51 3.65-2.415 6.898-5.365 9.145l2.485 3.264c3.083-2.349 5.284-5.544 6.364-9.178 1.745.645 3.601.98 5.48.98 8.7 0 15.777-7.078 15.777-15.778 0-1.645-.246-3.243-.734-4.776 11.181-3.324 19.064-13.714 19.064-25.578z"/>
    </g>
</svg>
